<?xml version="1.0" standalone="no"?>
<!DOCTYPE svg PUBLIC "-//W3C//DTD SVG 20010904//EN"
 "http://www.w3.org/TR/2001/REC-SVG-20010904/DTD/svg10.dtd">
<svg version="1.0" xmlns="http://www.w3.org/2000/svg"
 width="1764.000000pt" height="714.000000pt" viewBox="0 0 1764.000000 714.000000"
 preserveAspectRatio="xMidYMid meet">

<g transform="translate(0.000000,714.000000) scale(0.100000,-0.100000)"
fill="#000000" stroke="none">
<path d="M4205 6112 c-317 -409 -557 -722 -689 -897 -88 -115 -165 -216 -171
-223 -11 -12 -29 -4 -109 43 -126 74 -252 133 -302 140 -141 22 -635 -179
-1324 -540 -301 -157 -640 -341 -653 -354 -9 -9 234 -201 844 -667 l365 -280
-34 -53 c-52 -81 -149 -271 -162 -317 -31 -106 56 -360 301 -877 186 -394 576
-1129 596 -1124 14 3 321 395 854 1093 l85 111 75 -44 c40 -25 123 -69 183
-99 94 -46 117 -54 166 -54 135 0 429 113 927 355 372 181 1014 522 1020 542
4 12 -677 546 -1099 862 -54 41 -98 77 -98 81 0 5 21 44 47 87 25 43 68 123
94 178 42 86 49 109 49 161 0 206 -274 819 -783 1752 -60 111 -113 202 -116
202 -3 -1 -33 -36 -66 -78z m295 -1131 c183 -184 273 -301 350 -456 57 -114
80 -194 80 -277 0 -68 -21 -127 -85 -231 l-46 -76 -152 112 c-295 219 -424
313 -652 475 -126 90 -230 167 -230 172 0 7 190 179 408 368 107 93 120 101
140 91 12 -7 96 -87 187 -178z m-1445 -95 c50 -25 102 -56 117 -68 l27 -23
-175 -235 c-96 -129 -266 -362 -377 -518 l-202 -283 -52 56 c-116 123 -423
479 -421 487 8 22 176 202 261 279 224 201 393 304 572 345 90 20 147 11 250
-40z m636 -498 c145 -133 681 -668 760 -759 l48 -56 -157 -169 c-87 -93 -299
-307 -472 -476 l-313 -308 -50 43 c-80 67 -536 524 -725 726 -134 144 -169
187 -163 200 27 50 908 920 932 921 4 0 67 -55 140 -122z m1115 -1140 c60 -68
165 -187 233 -266 l123 -143 -17 -26 c-35 -53 -333 -341 -418 -405 -179 -133
-345 -202 -487 -203 -83 0 -87 1 -175 48 -49 26 -100 56 -112 65 l-22 17 131
175 c165 221 383 522 517 713 58 81 107 147 110 147 4 0 56 -55 117 -122z
m-2196 -244 c118 -87 328 -238 465 -337 138 -98 261 -186 274 -195 l24 -18
-59 -55 c-138 -130 -472 -419 -483 -419 -13 0 -238 209 -298 277 -167 189
-274 370 -314 532 -35 139 -18 218 75 364 l37 58 32 -24 c18 -13 129 -95 247
-183z"/>
</g>
</svg>
